<svg xmlns="http://www.w3.org/2000/svg" viewBox="0 0 900 520" role="img" aria-labelledby="title">
  <title id="title">Cardinal Drones CRM logo</title>
  <defs>
    <filter id="shadow" x="-20%" y="-20%" width="140%" height="140%">
      <feDropShadow dx="0" dy="8" stdDeviation="8" flood-color="#000" flood-opacity="0.55"/>
    </filter>
    <linearGradient id="red" x1="0" x2="1" y1="0" y2="1">
      <stop offset="0" stop-color="#ff1028"/>
      <stop offset="1" stop-color="#b30014"/>
    </linearGradient>
  </defs>

  <g opacity="0.95" stroke="#f8fafc" stroke-width="10" fill="none" stroke-linecap="round" filter="url(#shadow)">
    <line x1="450" y1="250" x2="450" y2="72"/>
    <line x1="450" y1="250" x2="170" y2="155"/>
    <line x1="450" y1="250" x2="730" y2="155"/>
    <line x1="450" y1="250" x2="205" y2="365"/>
    <line x1="450" y1="250" x2="695" y2="365"/>
    <line x1="450" y1="250" x2="450" y2="440"/>
    <circle cx="450" cy="64" r="44"/>
    <circle cx="154" cy="150" r="44"/>
    <circle cx="746" cy="150" r="44"/>
    <circle cx="190" cy="370" r="44"/>
    <circle cx="710" cy="370" r="44"/>
    <circle cx="450" cy="454" r="44"/>
    <circle cx="450" cy="64" r="8" fill="#f8fafc" stroke="none"/>
    <circle cx="154" cy="150" r="8" fill="#f8fafc" stroke="none"/>
    <circle cx="746" cy="150" r="8" fill="#f8fafc" stroke="none"/>
    <circle cx="190" cy="370" r="8" fill="#f8fafc" stroke="none"/>
    <circle cx="710" cy="370" r="8" fill="#f8fafc" stroke="none"/>
    <circle cx="450" cy="454" r="8" fill="#f8fafc" stroke="none"/>
  </g>

  <g filter="url(#shadow)">
    <path d="M450 142c-44 21-74 55-88 101-48-19-93-54-132-105 7 54 35 96 86 126-41 2-79-9-115-32 24 47 64 77 120 89-33 17-69 24-108 20 50 41 104 57 162 47l75 92 75-92c58 10 112-6 162-47-39 4-75-3-108-20 56-12 96-42 120-89-36 23-74 34-115 32 51-30 79-72 86-126-39 51-84 86-132 105-14-46-44-80-88-101Z" fill="url(#red)" stroke="#65000c" stroke-width="5"/>
    <path d="M450 184c-27 7-49 30-57 60 39 0 69 12 91 35-4-35-15-68-34-95Z" fill="#ff1933"/>
    <path d="M487 226c18 5 33 13 45 25-16 5-31 3-45-5v-20Z" fill="#111827"/>
    <path d="M487 247c15 3 27 9 36 19-11 6-23 6-36 1v-20Z" fill="#f97316"/>
    <circle cx="478" cy="218" r="5" fill="#f8fafc"/>
  </g>

  <g filter="url(#shadow)">
    <path d="M118 268h664l-24 72H142z" fill="#111827" stroke="#ef001b" stroke-width="6"/>
    <path d="M150 285h600l-10 35H160z" fill="#f8fafc" opacity="0.96"/>
    <text x="450" y="315" text-anchor="middle" font-family="Arial Black, Impact, sans-serif" font-size="54" font-style="italic" fill="#111827" letter-spacing="2">CARDINAL DRONES</text>
    <path d="M386 326h128l-12 64H398z" fill="#111827" stroke="#ef001b" stroke-width="4"/>
    <text x="450" y="372" text-anchor="middle" font-family="Arial Black, Impact, sans-serif" font-size="42" fill="#ffffff" letter-spacing="2">CRM</text>
  </g>
</svg>
